<svg width="150px" height="150px" viewBox="0 0 47 47" version="1.1" xmlns="http://www.w3.org/2000/svg" xmlns:xlink="http://www.w3.org/1999/xlink">
    <g stroke="none" stroke-width="1" fill="none" fill-rule="evenodd">
        <g>
            <path d="M33.2950316,0 L47,13.4315093 L47,32.6469221 L33.2950316,46.0784314 L13.7001395,46.0784314 L0,32.6469221 L0,13.4315093 L13.7001395,0 L33.2950316,0 Z M30.8482547,11.2636166 L23.5255556,18.4556166 L16.2039676,11.2636166 L11.6455556,15.7396463 L18.9685556,22.9326166 L11.6455556,30.1259652 L16.2039676,34.6019949 L23.5255556,27.4096166 L30.8482547,34.6019949 L35.4066667,30.1259652 L28.0835556,22.9326166 L35.4066667,15.7396463 L30.8482547,11.2636166 Z" fill="#E63748"></path>
            <path d="M33.2950316,0 L47,13.4315093 L47,32.6469221 L33.2950316,46.0784314 L23.5,46.0784314 L23.5,27.434 L23.5255556,27.4096166 L30.8482547,34.6019949 L35.4066667,30.1259652 L28.0835556,22.9326166 L35.4066667,15.7396463 L30.8482547,11.2636166 L23.5255556,18.4556166 L23.5,18.43 L23.5,0 L33.2950316,0 Z" fill="#C42B34"></path>
        </g>
    </g>
</svg>
