<svg width="70px" height="12px" viewBox="0 0 70 12" version="1.1" xmlns="http://www.w3.org/2000/svg">
  <defs>
    <path d="M309.99998,12 C310.219939,12 310.426744,12.0779277 310.582317,12.2195161 L310.582317,12.2195161 L316.075,18 L330,18 C333.865993,18 337,21.1340068 337,25 L337,606 C337,609.865993 333.865993,613 330,613 L19,613 C15.1340068,613 12,609.865993 12,606 L12,25 C12,21.1340068 15.1340068,18 19,18 L303.924,18 L309.417683,12.2195702 C309.542142,12.1062994 309.699376,12.033737 309.8699,12.0092428 Z"></path>
    <filter x="-1.8%" y="-1.0%" width="103.7%" height="102.0%" filterUnits="objectBoundingBox">
      <feOffset dx="0" dy="0" in="SourceAlpha" result="shadowOffsetOuter1"></feOffset>
      <feGaussianBlur stdDeviation="2" in="shadowOffsetOuter1" result="shadowBlurOuter1"></feGaussianBlur>
      <feComposite in="shadowBlurOuter1" in2="SourceAlpha" operator="out" result="shadowBlurOuter1"></feComposite>
      <feColorMatrix values="0 0 0 0 0.352941176   0 0 0 0 0.388235294   0 0 0 0 0.42745098  0 0 0 0.25 0" type="matrix" in="shadowBlurOuter1"></feColorMatrix>
    </filter>
  </defs>
  <g stroke="none" stroke-width="1">
    <g transform="translate(-71.000000, -581.000000)">
      <g class="Icon__Path" transform="translate(71.000000, 581.000000)" fill="#5a636d">
        <path d="M14.8537545,0.071203125 C17.9780653,0.071203125 20.0945574,2.1448125 20.0945574,5.79651563 C20.0945574,9.46565625 17.9780653,11.625 14.8537545,11.625 C11.7301692,11.625 9.61295159,9.46565625 9.61295159,5.79651563 C9.61295159,2.12810156 11.7301692,0.071203125 14.8537545,0.071203125 Z M62.243731,0.0385078125 L64.0881337,6.18014062 C64.5089652,7.533 64.7723476,8.60903906 65.2120439,9.94446094 L65.2120439,9.94446094 L65.2816988,9.94446094 C65.7039814,8.60903906 65.9847776,7.533 66.3881953,6.18014062 L66.3881953,6.18014062 L68.2325981,0.0385078125 L69.7250986,0.0385078125 L66.0725717,11.4193828 L64.3689299,11.4193828 L60.68085,0.0385078125 L62.243731,0.0385078125 Z M56.2722776,0.0385078125 L60.1707732,11.4193828 L58.6086178,11.4193828 L57.519535,7.95004687 L53.3221039,7.95004687 L52.2156074,11.4193828 L50.7231068,11.4193828 L54.6216024,0.0385078125 L56.2722776,0.0385078125 Z M43.9716641,0.27609375 L43.9716641,8.95125 L48.2409267,8.95125 L48.2409267,11.4193828 L40.9873885,11.4193828 L40.9873885,0.27609375 L43.9716641,0.27609375 Z M36.475785,0.27609375 L39.9120916,11.4193828 L36.7536788,11.4193828 L36.1986167,9.05369531 L33.0402039,9.05369531 L32.4844162,11.4193828 L29.4297602,11.4193828 L32.8660668,0.27609375 L36.475785,0.27609375 Z M29.8825168,0.27609375 L29.8825168,2.74495312 L26.8967901,2.74495312 L26.8967901,11.4193828 L23.9125146,11.4193828 L23.9125146,2.74495312 L20.9267879,2.74495312 L20.9267879,0.27609375 L29.8825168,0.27609375 Z M8.95413268,0.27609375 L8.95413268,2.74495312 L5.96913156,2.74495312 L5.96913156,11.4193828 L2.98485601,11.4193828 L2.98485601,2.74495312 L-0.000145114299,2.74495312 L-0.000145114299,0.27609375 L8.95413268,0.27609375 Z M14.8537545,2.60763281 C13.5005636,2.60763281 12.6676076,3.77376562 12.6676076,5.79651562 C12.6676076,7.81926563 13.5005636,9.08784375 14.8537545,9.08784375 C16.2076709,9.08784375 17.040627,7.81926563 17.040627,5.79651562 C17.040627,3.77376562 16.2076709,2.60763281 14.8537545,2.60763281 Z M55.4465772,1.21844531 L55.3769223,1.21844531 C55.0959811,2.27283281 54.8034306,3.28351031 54.4821824,4.29400181 L54.2355984,5.05251563 L53.6906942,6.78754688 L57.1509446,6.78754688 L56.606766,5.05251563 C56.185209,3.78611719 55.8158931,2.53642969 55.4465772,1.21844531 Z M34.6364612,2.47103906 L34.5675319,2.47103906 C34.3591893,3.44006585 34.1252591,4.56122592 33.8876736,5.5311678 L33.7686777,6.00213281 L33.5778524,6.77374219 L35.6602426,6.77374219 L35.4694173,6.00213281 C35.192249,4.93917187 34.9143551,3.58558594 34.6364612,2.47103906 Z"></path>
      </g>
    </g>
  </g>
</svg>
